<svg xmlns="http://www.w3.org/2000/svg" width="100.0" height="100.0" viewBox="0.0 0.0 100.0 100.0" fill="none">
<rect width="100" height="100" fill="#060606" />
<path d="M79.8818 49.8825C75.7671 49.8825 71.9655 49.1033 68.3486 47.5673C64.7293 45.9808 61.5365 43.8187 58.8599 41.1417C56.183 38.4648 54.0208 35.2724 52.4346 31.6534C50.898 28.0351 50.1192 24.2333 50.1192 20.1182C50.1192 20.0529 50.0663 20 50.001 20C49.9356 20 49.8828 20.0529 49.8828 20.1182C49.8828 24.2326 49.0787 28.0338 47.4925 31.6534C45.9555 35.2724 43.819 38.4648 41.1421 41.1417C38.4658 43.8187 35.273 45.9805 31.6544 47.5667C28.0358 49.1033 24.2333 49.8828 20.1182 49.8828C20.0529 49.8828 20 49.9356 20 50.001C20 50.0663 20.0529 50.1192 20.1182 50.1192C24.2323 50.1192 28.0348 50.9233 31.6544 52.5098C35.2737 54.0474 38.4661 56.1839 41.1421 58.8599C43.819 61.5375 45.9559 64.7296 47.4928 68.3495C49.0787 71.9672 49.8828 75.7671 49.8828 79.8815C49.8828 79.9468 49.9356 79.9997 50.001 79.9997C50.0663 79.9997 50.1192 79.9468 50.1192 79.8815C50.1192 75.7661 50.898 71.9662 52.4343 68.3495C54.0208 64.7296 56.1826 61.5368 58.8599 58.8599C61.5359 56.1833 64.728 54.0468 68.3486 52.5095C71.9669 50.9236 75.7677 50.1192 79.8818 50.1192C79.9471 50.1192 80 50.0663 80 50.001C80 49.9356 79.9471 49.8825 79.8818 49.8825Z" fill="white" />
</svg>