<svg xmlns="http://www.w3.org/2000/svg" width="960.0" height="540.0" viewBox="0.0 0.0 960.0 540.0" fill="none">
<path d="M415.375 347.917C411.708 347.917 408.576 346.618 405.979 344.021C403.382 341.424 402.083 338.292 402.083 334.625V205.375C402.083 201.708 403.382 198.576 405.979 195.979C408.576 193.382 411.708 192.083 415.375 192.083H502.688L492.146 202.396H415.375C414.611 202.396 413.924 202.701 413.313 203.312C412.701 203.924 412.396 204.611 412.396 205.375V334.625C412.396 335.389 412.701 336.076 413.313 336.687C413.924 337.299 414.611 337.604 415.375 337.604H544.625C545.389 337.604 546.076 337.299 546.688 336.687C547.299 336.076 547.604 335.389 547.604 334.625V256.708L557.917 246.396V334.625C557.917 338.292 556.618 341.424 554.021 344.021C551.424 346.618 548.292 347.917 544.625 347.917H415.375ZM457.083 292.917V261.521L542.792 175.812C543.708 174.743 544.778 174.056 546 173.75C547.375 173.292 548.75 173.062 550.125 173.062C551.347 173.062 552.569 173.292 553.792 173.75C555.167 174.208 556.389 174.972 557.458 176.042L573.5 192.083C574.569 193.153 575.333 194.375 575.792 195.75C576.403 196.972 576.708 198.271 576.708 199.646C576.708 200.868 576.403 202.167 575.792 203.542C575.333 204.917 574.569 206.139 573.5 207.208L488.021 292.917H457.083ZM566.167 199.646L550.125 183.146L566.167 199.646ZM467.396 282.604H483.896L544.396 221.875L536.146 213.854L527.667 205.604L467.396 265.646V282.604ZM536.146 213.854L527.667 205.604L536.146 213.854L544.396 221.875L536.146 213.854Z" fill="url(#paint0_linear_2219_6830)" />
<defs>
<linearGradient id="paint0_linear_2219_6830" x1="370" y1="270" x2="590" y2="270" gradientUnits="userSpaceOnUse">
<stop offset="0.35" stop-color="#4285F4" />
<stop offset="0.9" stop-color="#2DAEB8" />
</linearGradient>
</defs>
</svg>