<svg xmlns="http://www.w3.org/2000/svg" width="960.0" height="540.0" viewBox="0.0 0.0 960.0 540.0" fill="none">
<path d="M488.708 296.125H497.875V275.042L518.729 296.125H531.563L505.438 269.771L531.563 243.875H518.958L497.875 264.958V243.875H488.708V296.125ZM433.021 296.125H469.688V286.729H442.188V273.437H462.583C464.722 273.437 466.403 272.826 467.625 271.604C469 270.229 469.688 268.549 469.688 266.562V250.979C469.688 248.993 469 247.312 467.625 245.937C466.403 244.562 464.722 243.875 462.583 243.875H433.021V253.271H460.521V266.562H439.896C437.91 266.562 436.229 267.25 434.854 268.625C433.632 270 433.021 271.604 433.021 273.437V296.125ZM415.375 347.917C411.708 347.917 408.576 346.618 405.979 344.021C403.382 341.424 402.083 338.292 402.083 334.625V205.375C402.083 201.708 403.382 198.576 405.979 195.979C408.576 193.382 411.708 192.083 415.375 192.083H544.625C548.292 192.083 551.424 193.382 554.021 195.979C556.618 198.576 557.917 201.708 557.917 205.375V334.625C557.917 338.292 556.618 341.424 554.021 344.021C551.424 346.618 548.292 347.917 544.625 347.917H415.375ZM415.375 337.604H544.625C545.389 337.604 546.076 337.299 546.688 336.687C547.299 336.076 547.604 335.389 547.604 334.625V205.375C547.604 204.611 547.299 203.924 546.688 203.312C546.076 202.701 545.389 202.396 544.625 202.396H415.375C414.611 202.396 413.924 202.701 413.313 203.312C412.701 203.924 412.396 204.611 412.396 205.375V334.625C412.396 335.389 412.701 336.076 413.313 336.687C413.924 337.299 414.611 337.604 415.375 337.604ZM412.396 202.396C412.396 202.396 412.396 202.701 412.396 203.312C412.396 203.771 412.396 204.458 412.396 205.375V334.625C412.396 335.542 412.396 336.306 412.396 336.917C412.396 337.375 412.396 337.604 412.396 337.604C412.396 337.604 412.396 337.375 412.396 336.917C412.396 336.306 412.396 335.542 412.396 334.625V205.375C412.396 204.458 412.396 203.771 412.396 203.312C412.396 202.701 412.396 202.396 412.396 202.396Z" fill="url(#paint0_linear_2219_6832)" />
<defs>
<linearGradient id="paint0_linear_2219_6832" x1="370" y1="270" x2="590" y2="270" gradientUnits="userSpaceOnUse">
<stop offset="0.35" stop-color="#4285F4" />
<stop offset="0.9" stop-color="#2DAEB8" />
</linearGradient>
</defs>
</svg>