<svg xmlns="http://www.w3.org/2000/svg" width="960.0" height="540.0" viewBox="0.0 0.0 960.0 540.0" fill="none">
<path d="M415.313 261.349H433.663V278.559H415.313V291.116C415.313 296.232 419.225 299.488 425.652 299.488C429.378 299.488 431.614 298.838 435.526 296.698V313.721C430.962 315.767 425.839 317.628 417.456 317.628C400.596 317.628 392.492 309.907 392.492 295.303V248.791H415.313V261.349ZM219.862 258.93C230.667 258.93 237.933 261.534 243.056 264.79V281.813C239.143 279.116 233.275 276.79 226.196 276.79C214.367 276.79 208.685 281.628 208.685 288.232C208.685 294.558 213.714 299.674 226.289 299.674C232.903 299.674 239.237 297.441 243.242 295.022V311.488C236.722 315.395 228.711 317.627 219.489 317.627C196.109 317.627 184 304.418 184 288.046C184 271.581 196.669 258.93 219.862 258.93ZM273.427 258.93C284.604 258.93 291.404 263.674 295.409 273.069V261.349H318.23V315.767H295.409V303.674C291.59 312.976 284.045 317.627 272.961 317.627C258.43 317.627 247.904 306.185 247.904 288.418C247.904 270.744 258.709 258.93 273.427 258.93ZM374.185 293.906C380.612 293.906 386.014 299.301 386.015 305.72C386.015 312.324 380.612 317.627 374.185 317.627C367.571 317.627 362.262 312.324 362.262 305.72C362.262 299.301 367.571 293.906 374.185 293.906ZM649.325 258.93C670.749 258.93 680.344 269.814 680.344 286.372V292.604H639.638C641.873 297.535 646.996 300.418 658.174 300.418C666.371 300.418 672.146 298.372 678.48 294.837V310.93C672.519 314.837 663.297 317.627 652.306 317.627C629.391 317.627 616.537 305.348 616.537 287.767C616.537 271.209 628.088 258.93 649.325 258.93ZM717.366 258.93C738.79 258.93 748.385 269.814 748.385 286.372V292.604H707.679C709.914 297.535 715.038 300.418 726.215 300.418C734.412 300.418 740.187 298.372 746.521 294.837V310.93C740.56 314.837 731.338 317.627 720.347 317.627C697.432 317.627 684.578 305.348 684.578 287.767C684.578 271.209 696.129 258.93 717.366 258.93ZM384.151 280.419L372.974 280.325C359.747 280.232 348.289 292.605 348.289 305.628V315.768H325.934V304.604C325.934 279.674 348.01 259.488 372.974 259.488H384.151V280.419ZM567.585 274.466C571.404 263.954 578.298 258.931 589.476 258.931C604.193 258.931 611.924 267.861 611.924 284.977V315.768H589.103V289.814C589.103 281.628 585.563 277.349 578.856 277.349C571.405 277.349 567.585 281.721 567.585 290.187V315.768H544.857V248.791H567.585V274.466ZM776.279 315.768H753.551V248.791H776.279V315.768ZM467.938 293.999L477.997 261.348H501.098L511.251 294.185L519.354 261.348H542.083L524.851 315.767H499.7L488.802 283.022L478.369 315.767H454.244L436.453 261.348H460.206L467.938 293.999ZM284.046 276.511C277.153 276.511 271.657 281.814 271.657 288.325C271.657 294.93 277.153 300.232 284.046 300.232C290.846 300.232 296.341 294.93 296.341 288.325C296.341 281.814 290.846 276.511 284.046 276.511ZM650.723 274.744C644.016 274.744 640.383 278.185 639.079 282.65H661.993C661.062 277.906 657.429 274.744 650.723 274.744ZM718.764 274.744C712.057 274.744 708.424 278.185 707.12 282.65H730.034C729.103 277.906 725.47 274.744 718.764 274.744ZM387.878 236.14L381.171 242.465C372.042 251.023 359.56 255.768 347.917 255.768C336.274 255.767 323.792 251.023 314.664 242.465L307.957 236.14L322.302 222C331.709 233.256 341.397 235.767 347.917 235.768C354.437 235.768 364.125 233.256 373.533 222L387.878 236.14Z" fill="white" />
</svg>