<svg xmlns="http://www.w3.org/2000/svg" width="960.0" height="540.0" viewBox="0.0 0.0 960.0 540.0" fill="none">
<path d="M336.007 234.135C338.8 233.766 341.306 234.178 343.392 235.07C343.437 235.064 343.481 235.058 343.525 235.053C349.151 234.31 353.711 236.687 355.818 239.861C359.904 246.012 355.573 252.08 355.551 252.11L320.611 304.874C319.675 306.287 317.589 306.332 316.59 304.96L314.821 302.528L313.253 304.907C312.285 306.377 310.096 306.362 309.148 304.879L265.114 235.97C264.797 235.474 265.183 234.832 265.777 234.867L274.037 235.372C274.566 235.404 275.088 235.473 275.6 235.577L280.252 235.824C284.905 236.073 289.159 238.49 291.706 242.334L298.853 253.125L314.901 277.756L333.92 248.109C334.598 247.052 334.047 245.783 332.779 245.804C332.577 245.808 332.366 245.812 332.147 245.818C329.91 245.869 326.744 245.94 321.977 244.65C316.996 243.302 312.6 238.81 311.431 235.378C311.265 234.888 311.733 234.471 312.242 234.594C321.388 236.826 327.062 235.752 332.09 234.802C333.424 234.549 334.712 234.306 336.007 234.135ZM346.954 237.392C347.467 237.879 347.918 238.4 348.3 238.943C353.301 246.027 348.033 252.11 348.033 252.11L316.245 300.366L318.57 303.563L353.51 250.798L353.535 250.761L353.553 250.735L353.555 250.733C353.557 250.73 353.561 250.723 353.568 250.714C353.585 250.69 353.615 250.644 353.655 250.578C353.737 250.449 353.859 250.243 353.999 249.973C354.28 249.428 354.622 248.647 354.857 247.717C355.321 245.881 355.36 243.551 353.781 241.174C352.586 239.377 350.177 237.756 346.954 237.392ZM494.332 244.381C499.175 244.381 503.539 245.079 507.427 246.477C511.315 247.852 514.533 249.787 517.08 252.285C519.649 254.782 521.377 257.704 522.264 261.049L522.366 261.427H512.782L512.645 261.118C511.349 258.323 509.121 256.146 505.96 254.588C502.8 253.007 498.969 252.216 494.467 252.216C490.375 252.216 486.804 252.938 483.758 254.381C480.711 255.802 478.335 257.841 476.63 260.5C474.948 263.158 474.107 266.342 474.107 270.054V270.122C474.107 272.917 474.584 275.439 475.54 277.684C476.517 279.93 477.892 281.843 479.667 283.423C481.463 285.004 483.611 286.219 486.112 287.068C488.636 287.892 491.456 288.304 494.571 288.304C498.095 288.304 501.175 287.823 503.812 286.861C506.472 285.899 508.609 284.513 510.224 282.702C511.861 280.869 512.885 278.68 513.294 276.137L513.328 275.656H494.808V269.024H522.672V273.078C522.672 276.538 522.002 279.678 520.661 282.496C519.342 285.313 517.432 287.742 514.931 289.781C512.452 291.822 509.473 293.39 505.996 294.49C502.517 295.567 498.628 296.106 494.332 296.106C489.829 296.106 485.748 295.51 482.087 294.319C478.427 293.105 475.29 291.363 472.674 289.095C470.059 286.827 468.047 284.088 466.638 280.88C465.228 277.672 464.523 274.086 464.523 270.122V270.054C464.523 264.853 465.751 260.328 468.207 256.479C470.662 252.629 474.118 249.649 478.575 247.542C483.054 245.434 488.307 244.381 494.332 244.381ZM561.453 244.381C566.296 244.381 570.661 245.079 574.549 246.477C578.437 247.852 581.654 249.787 584.201 252.285C586.77 254.782 588.498 257.704 589.385 261.049L589.487 261.427H579.904L579.766 261.118C578.47 258.323 576.243 256.146 573.083 254.588C569.922 253.007 566.091 252.216 561.589 252.216C557.497 252.216 553.928 252.939 550.88 254.381C547.833 255.802 545.457 257.841 543.753 260.5C542.07 263.158 541.228 266.342 541.228 270.054V270.122C541.228 272.917 541.705 275.439 542.661 277.684C543.639 279.93 545.013 281.843 546.788 283.423C548.584 285.004 550.732 286.219 553.233 287.068C555.757 287.892 558.577 288.304 561.692 288.304C565.216 288.304 568.297 287.824 570.934 286.861C573.594 285.899 575.732 284.512 577.345 282.702C578.982 280.869 580.006 278.68 580.415 276.137L580.45 275.656H561.929V269.024H589.794V273.078C589.794 276.538 589.123 279.678 587.782 282.496C586.463 285.313 584.553 287.742 582.052 289.781C579.573 291.822 576.596 293.39 573.117 294.49C569.638 295.567 565.75 296.106 561.453 296.106C556.951 296.106 552.869 295.51 549.209 294.319C545.548 293.105 542.411 291.363 539.796 289.095C537.181 286.827 535.168 284.088 533.759 280.88C532.349 277.672 531.644 274.086 531.644 270.122V270.054C531.644 264.854 532.872 260.328 535.328 256.479C537.783 252.629 541.24 249.649 545.696 247.542C550.175 245.434 555.428 244.381 561.453 244.381ZM405.553 285.964H405.894L424.378 245.443H434.815L411.351 295.037H400.129L376.667 245.443H387.103L405.553 285.964ZM453.543 295.037H444.163V245.443H453.543V295.037ZM610.281 287.373H641.658V295.037H600.902V245.443H610.281V287.373ZM695.719 252.902H661.375V266.271H693.4V273.317H661.375V287.58H695.719V295.037H651.997V245.443H695.719V252.902ZM280.961 238.294C281.523 238.807 282.034 239.381 282.485 240.007L286.89 246.129L311.17 283.57L313.464 279.994L296.807 254.429L289.666 243.646C287.698 240.676 284.507 238.726 280.961 238.294Z" fill="#FBFBFB" />
</svg>