<svg xmlns="http://www.w3.org/2000/svg" width="100.0" height="100.0" viewBox="0.0 0.0 100.0 100.0" fill="none">
<rect width="100" height="100" fill="#060606" />
<path d="M33.3125 71.25C31.8125 71.25 30.5417 70.75 29.5 69.75C28.4583 68.75 27.9375 67.5208 27.9375 66.0625C27.9375 65.6042 28 65.1875 28.125 64.8125C28.25 64.3958 28.4583 64 28.75 63.625L42.6875 42.75C43.1042 42.125 43.4167 41.4375 43.625 40.6875C43.875 39.9375 44 39.1667 44 38.375V31.75H42.5625C42.1458 31.75 41.7917 31.6042 41.5 31.3125C41.2083 31.0208 41.0625 30.6667 41.0625 30.25C41.0625 29.8333 41.2083 29.4792 41.5 29.1875C41.7917 28.8958 42.1458 28.75 42.5625 28.75H57.4375C57.8542 28.75 58.2083 28.8958 58.5 29.1875C58.7917 29.4792 58.9375 29.8333 58.9375 30.25C58.9375 30.6667 58.7917 31.0208 58.5 31.3125C58.2083 31.6042 57.8542 31.75 57.4375 31.75H56V38.375C56 39.125 56.1042 39.8958 56.3125 40.6875C56.5625 41.4375 56.8958 42.125 57.3125 42.75L71.1875 63.625C71.4792 64 71.6875 64.3958 71.8125 64.8125C71.9375 65.1875 72 65.6042 72 66.0625C72 67.5208 71.4792 68.75 70.4375 69.75C69.4375 70.75 68.2083 71.25 66.75 71.25H33.3125ZM47 31.75V38.375C47 39.4167 46.8333 40.4583 46.5 41.5C46.2083 42.5 45.7708 43.4583 45.1875 44.375L37.4375 56C37.2708 56.25 37.1458 56.5208 37.0625 56.8125C36.9792 57.1042 36.9375 57.3958 36.9375 57.6875C36.9375 58.6458 37.2708 59.4583 37.9375 60.125C38.6042 60.7917 39.4583 61.125 40.5 61.125C41.625 61.125 42.75 60.875 43.875 60.375C45.0417 59.875 46.6667 58.9375 48.75 57.5625C51.5 55.7292 53.5833 54.4583 55 53.75C56.4583 53 57.8958 52.4792 59.3125 52.1875C59.4792 52.1875 59.5833 52.125 59.625 52C59.7083 51.8333 59.7083 51.6875 59.625 51.5625L54.875 44.4375C54.25 43.5625 53.7708 42.625 53.4375 41.625C53.1458 40.5833 53 39.5 53 38.375V31.75H47Z" fill="white" />
</svg>