<svg xmlns="http://www.w3.org/2000/svg" width="100.0" height="100.0" viewBox="0.0 0.0 100.0 100.0" fill="none">
<rect width="100" height="100" fill="#060606" />
<path d="M50.5732 24.2871C49.8003 25.5232 49.1811 26.8651 48.7441 28.2871H36.0059C31.5869 28.2871 28.0039 31.8701 28.0039 36.2891V64.293C28.0039 68.712 31.5869 72.2949 36.0059 72.2949H64.0098C68.4288 72.2949 72.0117 68.712 72.0117 64.293V48.7812C73.4661 48.1219 74.8106 47.2634 76.0117 46.2412V64.293C76.0117 70.9215 70.6383 76.2949 64.0098 76.2949H36.0059C29.3774 76.2949 24.0039 70.9215 24.0039 64.293V36.2891C24.0039 29.6606 29.3774 24.2871 36.0059 24.2871H50.5732ZM63.999 18.2832C63.999 22.7455 65.5378 26.5412 68.6152 29.6699C71.7438 32.7471 75.539 34.286 80.001 34.2861C75.5391 34.2862 71.7438 35.8501 68.6152 38.9785C65.5379 42.0559 63.9991 45.826 63.999 50.2881C63.9989 45.826 62.4343 42.0559 59.3057 38.9785C56.2283 35.8499 52.4583 34.2861 47.9961 34.2861C52.4583 34.2861 56.2283 32.7473 59.3057 29.6699C62.4344 26.5412 63.999 22.7455 63.999 18.2832Z" fill="white" />
</svg>