<svg xmlns="http://www.w3.org/2000/svg" width="100.0" height="100.0" viewBox="0.0 0.0 100.0 100.0" fill="none">
<rect width="100" height="100" fill="#060606" />
<path d="M36.6969 55.3391C35.0799 55.3391 34.002 54.2611 34.002 52.6442V25.6949C34.002 24.3475 35.0799 23 36.6969 23C38.3138 23 39.3918 24.3475 39.3918 25.6949V52.6442C39.3918 54.2611 38.3138 55.3391 36.6969 55.3391Z" fill="white" />
<path d="M63.6461 55.0696C62.2986 55.0696 60.9512 53.9916 60.9512 52.3747V25.6949C60.9512 24.3475 62.2986 23 63.6461 23C64.9936 23 66.341 24.3475 66.341 25.6949V52.3747C66.341 53.9916 64.9936 55.0696 63.6461 55.0696Z" fill="white" />
<path d="M50.1701 76.8994C49.6311 76.8994 49.0921 76.8994 48.8226 76.6299L27.2632 63.1553C25.9158 62.3468 25.6463 60.7298 26.4548 59.3824C27.2632 58.0349 28.8802 57.7654 30.2277 58.5739L50.4396 71.2401L70.6515 58.5739C71.999 57.7654 73.6159 58.3044 74.4244 59.3824C75.2329 60.7298 74.6939 62.3468 73.6159 63.1553L52.0565 76.6299C51.5176 76.8994 50.9786 76.8994 50.7091 77.1689L50.1701 76.8994Z" fill="white" />
<path d="M50.1695 63.4231C48.5526 63.4231 47.4746 62.0756 47.4746 60.7281V33.7789C47.4746 32.162 48.5526 31.084 50.1695 31.084C51.7865 31.084 52.8645 32.162 52.8645 33.7789V60.7281C52.8645 62.0756 51.7865 63.4231 50.1695 63.4231Z" fill="white" />
</svg>